<?xml version="1.0" encoding="utf-8"?>
<!-- Svg Vector Icons : http://www.onlinewebfonts.com/icon -->
<!DOCTYPE svg PUBLIC "-//W3C//DTD SVG 1.1//EN" "http://www.w3.org/Graphics/SVG/1.1/DTD/svg11.dtd">
<svg version="1.1" xmlns="http://www.w3.org/2000/svg" xmlns:xlink="http://www.w3.org/1999/xlink" x="0px" y="0px" viewBox="0 0 1000 1000" enable-background="new 0 0 1000 1000" xml:space="preserve">
<metadata> Svg Vector Icons : http://www.onlinewebfonts.com/icon </metadata>
<g><path class="icon" d="M867.5,40.9v-0.2H745v61.2h73.2l104.9,490H683.8L561.2,714.4H438.8L316.2,591.9H76.9l104.9-490H255V40.6H132.5v0.2L10,591.9v245c0,67.6,54.8,122.5,122.5,122.5h735c67.7,0,122.5-54.9,122.5-122.5v-245L867.5,40.9z"/><path class="icon" d="M569.5,205.5L550.3,249c0,0-17,42.7,38.4,33.8l156.1-37.3c0,0,35.5-9.7,19.8-41L679.6,51.7c0,0-26.3-25.4-44,4.8l-18.9,43.7c0,0-287.6-117.7-356,189.6C260.7,289.8,336.9,113.4,569.5,205.5z"/><path class="icon" d="M451.8,362.8L296.7,404c0,0-35.2,10.6-18.8,41.4l88.8,150.7c0,0,26.9,24.6,43.9-6l17.8-44c0-0.1,290.4,110.3,351.1-198.6c0,0-71.8,178.3-306.5,92l18-43.9C491,395.6,507,352.4,451.8,362.8z"/></g>
</svg>
